<svg xmlns="http://www.w3.org/2000/svg" xmlns:xlink="http://www.w3.org/1999/xlink" aria-hidden="true" role="img" class="iconify iconify--logos" width="35.93" height="32" preserveAspectRatio="xMidYMid meet" viewBox="0 0 256 228"><path fill="#00D8FF" d="M210.483 73.824a171.49 171.49 0 0 0-8.24-2.597c.465-1.9.893-3.777 1.273-5.621c6.238-30.281 2.16-54.676-11.769-62.708c-13.355-7.7-35.196.329-57.254 19.526a171.23 171.23 0 0 0-6.375 5.848a155.866 155.866 0 0 0-4.241-3.917C100.759 3.829 77.587-4.822 63.673 3.233C50.33 10.957 46.379 33.89 51.986 62.588a170.974 170.974 0 0 0 1.892 8.48c-3.28.932-6.445 1.924-9.474 2.98C17.309 83.498 0 98.307 0 113.668c0 15.865 18.582 31.778 46.812 41.427a145.52 145.52 0 0 0 6.921 2.165a167.467 167.467 0 0 0-2.01 9.138c-5.354 28.2-1.173 50.591 12.134 58.266c13.744 7.926 36.812-.22 59.273-19.855a145.567 145.567 0 0 0 5.342-4.923a168.064 168.064 0 0 0 6.92 6.314c21.758 18.722 43.246 26.282 56.54 18.586c13.731-7.949 18.194-32.003 12.4-61.268a145.016 145.016 0 0 0-1.535-6.842c1.62-.48 3.21-.974 4.76-1.488c29.348-9.723 48.443-25.443 48.443-41.52c0-15.417-17.868-30.326-45.517-39.844Zm-6.365 70.984c-1.4.463-2.836.91-4.3 1.345c-3.24-10.257-7.612-21.163-12.963-32.432c5.106-11 9.31-21.767 12.459-31.957a145.95 145.95 0 0 1 7.535 2.358c22.533 8.148 38.45 20.18 38.45 31.702c0 12.292-17.218 24.87-41.18 33.084ZM115.12 33.12c19.757-17.18 38.39-23.626 48.354-17.871c10.55 6.093 14.215 27.037 8.582 54.338a152.904 152.904 0 0 1-1.163 5.135a285.31 285.31 0 0 0-31.82-4.314a285.107 285.107 0 0 0-19.73-23.812a152.293 152.293 0 0 1 5.777-5.376Zm-30.958 77.88a257.983 257.983 0 0 0 9.44 16.39a272.308 272.308 0 0 1-17.199-2.046c1.629-4.625 3.539-9.434 5.673-14.424a272.948 272.948 0 0 0 2.086 .08Zm-10.757-38.224a260.6 260.6 0 0 1 17.252-2.102a275.41 275.41 0 0 0-9.252 15.986a275.41 275.41 0 0 0-5.77-14.157c-.82.083-1.55.17-2.23.273ZM69.439 113.41c-4.053-6.992-7.57-14.04-10.49-20.985c2.949-6.97 6.502-14.054 10.582-21.084a273.22 273.22 0 0 0 12.082-17.7a258.7 258.7 0 0 1 29.55 3.218c5.312 7.91 10.77 16.28 16.184 25.175c-5.352 8.822-10.754 17.157-16.042 25.081a258.7 258.7 0 0 1-29.516 3.239a273.22 273.22 0 0 0-12.35-16.944ZM109.29 195.29c-2.104-1.934-4.197-4.032-6.283-6.288c8.028-.074 16.17-.653 24.353-1.74a259.98 259.98 0 0 0 9.247 15.93a256.32 256.32 0 0 1-17.202-2.025a275.756 275.756 0 0 1-10.115-5.877Zm30.775-1.38a285.31 285.31 0 0 0 19.753-23.837a285.31 285.31 0 0 0 31.826-4.332c.377 1.635.72 3.263 1.032 4.883c5.684 27.643 1.97 49.188-8.602 55.306c-10.497 6.076-30.214-.45-50.773-18.32a155.98 155.98 0 0 1-5.236-4.7ZM196.31 109.21c3.254 10.26 5.602 20.155 7.048 29.5a256.32 256.32 0 0 1-17.14 2.014a275.756 275.756 0 0 1-10.03-5.83a275.41 275.41 0 0 0 9.11-15.784a258.7 258.7 0 0 1 11.012-9.9ZM128 94.4c11.093 0 19.268 8.175 19.268 19.268S139.093 132.936 128 132.936S108.732 124.761 108.732 113.668S116.907 94.4 128 94.4ZM65.066 72.79a152.906 152.906 0 0 1-1.726-7.7C57.826 37.98 61.413 18.064 71.5 12.244c10.668-6.158 31.038.726 52.148 19.326a137.17 137.17 0 0 1 3.84 3.55a285.107 285.107 0 0 0-19.638 23.717a285.31 285.31 0 0 0-31.736 4.381c-.455-1.79-.879-3.57-1.263-5.327c-.111-.527-.216-1.054-.315-1.577l.53-3.524ZM57.9 146.638a126.44 126.44 0 0 1-6.31-1.97c-23.03-8.288-40.39-20.795-40.39-32.664c0-11.278 15.476-22.965 38.024-31.126a152.906 152.906 0 0 1 8.638-2.712c3.333 10.476 7.703 21.463 12.954 32.773c-5.092 11.02-9.331 21.804-12.916 31.7ZM128 228a128 128 0 1 0 0-256a128 128 0 0 0 0 256Z"></path></svg>
